<?xml version="1.0" standalone="no"?>
<!DOCTYPE svg PUBLIC "-//W3C//DTD SVG 20010904//EN"
 "http://www.w3.org/TR/2001/REC-SVG-20010904/DTD/svg10.dtd">
<svg version="1.0" xmlns="http://www.w3.org/2000/svg"
 width="938.000000pt" height="886.000000pt" viewBox="0 0 938.000000 886.000000"
 preserveAspectRatio="xMidYMid meet">

<g transform="translate(0.000000,886.000000) scale(0.100000,-0.100000)"
fill="#000000" stroke="none">
<path d="M0 4430 l0 -4430 4690 0 4690 0 0 4430 0 4430 -4690 0 -4690 0 0
-4430z m6361 2872 c67 -12 146 -51 198 -97 21 -19 43 -35 49 -35 15 0 87 -118
106 -173 12 -35 16 -86 16 -188 0 -211 -15 -245 -186 -422 -55 -57 -119 -129
-144 -161 -53 -69 -348 -357 -403 -394 -36 -24 -37 -26 -20 -45 10 -11 43 -36
73 -57 93 -64 541 -527 468 -485 -7 5 28 -34 77 -86 92 -96 114 -135 144 -249
14 -56 19 -141 9 -156 -4 -6 -11 -33 -14 -60 -4 -27 -20 -77 -37 -111 -35 -72
-153 -207 -174 -199 -8 3 -11 1 -8 -4 7 -12 -40 -33 -108 -49 -74 -17 -292
-14 -328 5 -17 8 -33 13 -36 11 -15 -16 -119 74 -389 338 -167 163 -325 313
-351 332 -70 52 -263 245 -263 263 0 9 -34 49 -76 90 -106 106 -151 168 -187
257 -29 73 -31 86 -30 198 l1 120 47 85 c34 63 71 111 143 185 54 55 110 118
125 140 14 22 214 227 444 456 384 382 424 419 487 449 42 20 91 34 127 37 33
3 62 10 65 15 7 10 84 6 175 -10z m-3819 -13 c72 -15 125 -43 176 -92 23 -23
42 -38 42 -34 0 4 9 3 20 -3 11 -6 20 -18 20 -27 0 -20 58 -83 76 -83 12 0 42
-32 120 -130 39 -49 676 -689 2489 -2500 635 -635 1173 -1180 1195 -1212 22
-31 35 -58 29 -60 -6 -2 -5 -14 5 -33 21 -40 22 -257 1 -334 -27 -102 -141
-240 -241 -291 -47 -24 -58 -25 -219 -25 l-170 0 -92 48 c-92 48 -174 111
-194 149 -9 16 -8 19 3 13 7 -3 5 0 -4 8 -10 8 -16 17 -13 20 3 4 2 5 -1 3
-19 -14 -532 480 -538 516 -3 23 -61 84 -402 423 -172 171 -314 315 -316 322
-2 6 -34 44 -73 85 -38 41 -93 99 -121 129 -28 30 -104 101 -168 159 -64 58
-266 254 -449 435 -182 182 -357 347 -388 368 -31 21 -163 147 -293 280 -286
293 -225 232 -664 664 -323 318 -416 415 -371 387 7 -4 -1 10 -19 32 -129 162
-127 434 4 606 16 21 37 49 47 62 27 39 96 82 167 104 75 24 254 30 342 11z
m-42 -1838 c45 -11 102 -32 128 -47 48 -27 1006 -973 996 -983 -7 -8 289 -301
304 -301 19 0 276 -257 262 -262 -10 -3 175 -187 463 -460 126 -121 174 -186
212 -295 9 -26 21 -56 26 -65 5 -10 9 -53 8 -95 -1 -55 -3 -70 -9 -53 -7 23
-8 21 -9 -11 -2 -55 -37 -159 -72 -212 -39 -59 -118 -127 -187 -162 -28 -14
-52 -29 -52 -33 0 -4 -19 -8 -41 -8 -23 -1 -44 -6 -48 -12 -10 -17 -167 -14
-181 3 -6 7 -18 11 -26 8 -8 -3 -25 2 -39 11 -13 9 -32 16 -40 16 -23 0 -76
41 -181 140 -49 47 -124 112 -165 144 -81 65 -249 226 -249 239 0 25 -431 469
-502 517 -64 44 -188 161 -188 178 0 10 27 -9 73 -54 39 -39 81 -76 92 -84 11
-7 -23 28 -74 78 -52 50 -97 90 -100 89 -4 0 -65 60 -138 134 -73 74 -281 282
-463 464 -280 280 -335 340 -365 396 -19 37 -35 80 -35 96 0 16 -5 34 -11 40
-13 13 -7 181 10 243 6 25 27 70 46 102 19 31 35 60 35 65 0 16 112 118 150
138 108 57 232 69 370 36z m22 -1840 c114 -39 120 -42 223 -138 225 -209 252
-243 302 -381 27 -74 44 -242 26 -264 -6 -7 -16 -31 -23 -53 -19 -60 -65 -137
-117 -195 -49 -55 -127 -113 -137 -103 -3 4 -6 1 -6 -6 0 -7 -4 -9 -10 -6 -5
3 -20 -1 -32 -9 -13 -9 -43 -16 -70 -16 -36 0 -48 -4 -48 -15 0 -21 -132 -22
-150 0 -6 8 -26 14 -44 13 -17 -1 -42 5 -55 11 -13 7 -33 14 -46 15 -48 6
-198 136 -274 239 -23 32 -53 62 -67 67 -14 6 -21 15 -18 23 2 7 -4 22 -16 32
-39 35 -96 180 -107 272 -6 53 21 179 55 253 24 53 152 198 197 223 11 6 56
23 100 38 112 39 202 39 317 0z m-932 -1769 c29 -21 67 -95 83 -163 11 -46 27
-67 27 -35 0 33 80 185 105 202 41 27 118 24 150 -6 14 -13 25 -29 25 -37 0
-7 -44 -97 -97 -200 l-97 -187 -4 -113 -5 -113 -87 1 -87 1 -6 114 -5 113
-101 194 -100 193 22 26 c12 14 29 29 37 32 27 10 114 -3 140 -22z m632 18
c21 -6 43 -19 50 -29 10 -14 13 -92 13 -327 l0 -309 -90 0 -90 0 -3 305 c-1
168 0 315 3 328 9 37 53 49 117 32z m632 -5 c8 -8 22 -15 30 -15 13 0 16 -12
16 -61 0 -99 0 -99 -150 -99 l-130 0 0 -35 0 -35 125 0 125 0 0 -80 0 -80
-125 0 -125 0 0 -45 0 -45 113 -1 c166 -1 161 1 165 -92 l3 -77 -193 0 c-106
0 -210 3 -230 6 l-38 7 0 318 c0 306 1 319 19 319 10 0 21 7 25 15 4 13 34 15
180 15 142 0 177 -3 190 -15z m362 -12 l34 -17 -7 -237 -6 -237 121 5 c118 6
122 5 122 -14 0 -12 7 -23 15 -27 21 -8 20 -84 -2 -108 -15 -16 -35 -18 -220
-18 l-203 0 0 324 0 325 23 16 c25 18 68 14 123 -12z m660 12 c10 -10 35 -15
72 -15 45 -1 70 -7 117 -33 50 -27 64 -41 91 -92 32 -59 33 -63 33 -192 1 -78
-3 -134 -9 -138 -5 -3 -10 -14 -10 -24 0 -30 -67 -108 -118 -138 -47 -28 -49
-28 -222 -28 l-175 0 -3 325 c-2 297 -1 326 15 338 25 18 190 16 209 -3z m884
6 c0 -5 9 -13 20 -16 18 -6 20 -15 20 -86 l0 -79 -141 0 -140 0 3 -36 3 -36
110 -2 110 -1 0 -85 0 -85 -113 -3 -113 -3 2 -117 1 -117 -68 0 -68 0 -12 40
c-8 26 -13 128 -13 299 l-1 260 26 38 27 38 173 0 c101 0 174 -4 174 -9z m562
-2 c96 -20 180 -76 214 -142 18 -33 54 -170 54 -203 0 -35 -30 -145 -51 -185
-60 -119 -240 -187 -380 -145 -110 34 -193 126 -224 251 -17 65 -17 75 -2 148
18 88 70 183 120 221 40 30 131 59 199 65 9 0 41 -4 70 -10z m675 0 c5 -5 36
-13 67 -16 115 -12 161 -73 161 -213 -1 -75 -4 -90 -28 -127 -15 -24 -34 -43
-42 -43 -22 0 -19 -11 25 -97 27 -52 41 -93 43 -123 l2 -45 -93 -3 -93 -3 -25
58 c-15 32 -35 81 -45 110 -11 28 -26 57 -34 63 -13 11 -15 -4 -15 -110 l0
-121 -92 3 -93 4 0 324 0 325 45 12 c57 15 203 16 217 2z m837 -15 c49 -17
136 -89 136 -114 0 -9 -7 -7 -22 6 -17 15 -15 10 6 -18 16 -22 29 -54 32 -78
l4 -40 -89 0 c-97 0 -121 5 -121 25 0 23 -51 55 -87 55 -73 0 -125 -54 -138
-142 -9 -61 7 -109 51 -148 29 -25 43 -30 85 -30 41 0 54 5 74 26 38 41 32 47
-35 41 l-60 -5 0 79 0 79 164 0 164 0 7 -162 c4 -90 5 -176 4 -193 l-4 -30
-116 0 c-83 0 -120 -4 -132 -14 -30 -24 -151 -11 -227 25 -70 34 -146 97 -135
113 3 6 -2 25 -11 43 -12 24 -17 61 -18 152 -1 120 0 121 36 191 20 40 47 76
60 83 12 6 34 21 48 32 62 49 216 61 324 24z m751 12 l35 -15 0 -68 c0 -40 -5
-74 -12 -81 -8 -8 -54 -12 -140 -12 l-128 0 0 -35 0 -34 123 -3 122 -3 3 -77
3 -78 -126 0 -125 0 0 -44 0 -44 129 -4 c71 -2 133 -7 138 -11 4 -5 9 -42 11
-83 l4 -74 -233 2 -234 3 -3 305 c-1 168 0 320 3 338 l6 32 195 0 c147 0 203
-4 229 -14z"/>
<path d="M5134 6409 c-107 -108 -107 -112 -1 -9 48 46 87 86 87 87 0 8 -13 -4
-86 -78z"/>
<path d="M5090 5250 c25 -24 95 -91 155 -149 l110 -106 -125 128 c-69 71 -138
138 -155 149 -19 13 -14 5 15 -22z"/>
<path d="M2870 7036 c0 -2 8 -10 18 -17 15 -13 16 -12 3 4 -13 16 -21 21 -21
13z"/>
<path d="M3260 5235 c47 -47 87 -85 90 -85 2 0 -33 38 -80 85 -47 47 -87 85
-90 85 -2 0 33 -38 80 -85z"/>
<path d="M5260 3226 c0 -2 8 -10 18 -17 15 -13 16 -12 3 4 -13 16 -21 21 -21
13z"/>
<path d="M5720 2776 c0 -2 8 -10 18 -17 15 -13 16 -12 3 4 -13 16 -21 21 -21
13z"/>
<path d="M2100 5379 c-17 -13 -18 -17 -5 -10 33 17 51 31 40 31 -5 0 -21 -10
-35 -21z"/>
<path d="M3681 2963 c1 -5 40 -44 88 -88 l86 -80 -85 88 c-86 88 -91 93 -89
80z"/>
<path d="M2855 3332 c44 -45 81 -82 83 -82 8 0 -66 78 -114 121 -27 23 -13 6
31 -39z"/>
<path d="M3824 1664 c3 -9 6 -81 6 -160 l0 -144 54 0 c102 0 156 59 156 169 0
59 -32 104 -95 132 -52 24 -130 26 -121 3z"/>
<path d="M5192 1663 c-93 -46 -110 -182 -33 -263 36 -37 41 -40 95 -40 50 0
60 4 91 33 34 32 35 33 37 124 2 79 0 94 -17 113 -46 50 -112 63 -173 33z"/>
<path d="M5920 1630 l0 -50 48 0 c53 0 72 12 72 46 0 31 -36 54 -82 54 l-38 0
0 -50z"/>
</g>
</svg>
